<?xml version="1.0" encoding="UTF-8"?>
<svg id="Capa_1" data-name="Capa 1" xmlns="http://www.w3.org/2000/svg" version="1.1" xmlns:mydata="http://www.w3.org/2000/svg" viewBox="0 0 288 246.1">
  <defs>
    <style>
      .cls-1 {
        fill: #138275;
        stroke-width: 0px;
      }
    </style>
  </defs>
  <g id="element-id-95376">
    <path id="element-id-17790" class="cls-1" d="M48,189.4v6.2h-24.7v-37h6.2v30.9h18.6Z"/>
    <path id="element-id-73091" class="cls-1" d="M55,158.5h6.1v32.1l-6.1,4.8v-36.9Z"/>
    <path id="element-id-44193" class="cls-1" d="M92.2,158.5v6.2h-12.3v30.8h-6.2v-37h18.5Z"/>
    <path id="element-id-4548" class="cls-1" d="M129,158.5v23.2c0,.3,0,.9,0,1.7,0,.8-.2,1.7-.5,2.7s-.7,2.1-1.3,3.2-1.4,2.1-2.5,3c-1.1.9-2.4,1.6-4,2.2s-3.6.9-6,.9-4.2-.3-5.8-.9-2.9-1.3-3.9-2.2c-1-.9-1.8-1.9-2.3-3-.5-1.1-.9-2.2-1.2-3.2-.2-1-.4-1.9-.4-2.7s0-1.4,0-1.7v-23.2h6.2v23.2c0,.4,0,1,.1,1.9,0,.9.4,1.8.8,2.7.5.9,1.2,1.8,2.2,2.5,1,.7,2.5,1.1,4.4,1.1s3.6-.4,4.7-1.1,1.9-1.6,2.4-2.5.8-1.8.9-2.7c0-.9.1-1.5.1-1.9v-23.2h6.2Z"/>
    <path id="element-id-21413" class="cls-1" d="M167.8,195.4h-6.8l-8.2-15.1h-13.7v-6.1h17.8c.8,0,1.4-.2,2-.6.5-.3,1-.8,1.4-1.4s.6-1.6.6-2.8-.2-2.1-.6-2.8c-.4-.7-.9-1.1-1.4-1.4-.6-.4-1.3-.6-2-.6h-17.8v-6.2h17.8c1.9,0,3.6.6,5.1,1.4.6.4,1.2.8,1.9,1.3s1.2,1.2,1.6,1.9c.5.8.9,1.6,1.2,2.7.3,1,.4,2.2.4,3.6,0,2.2-.4,4.1-1.1,5.5-.7,1.4-1.5,2.5-2.4,3.3-.9.8-1.8,1.4-2.6,1.6-.8.3-1.3.4-1.5.4l8.2,15.1Z"/>
    <path id="element-id-44637" class="cls-1" d="M192.7,164.7c-1.5,0-3,.3-4.5,1s-2.8,1.5-3.9,2.6c-1.2,1.1-2.1,2.4-2.8,3.9s-1.1,3.1-1.1,4.8.3,2.8.8,4.2h-6.5c-.2-.7-.3-1.3-.4-2,0-.7-.1-1.4-.1-2.2,0-2.4.5-4.7,1.5-6.9s2.3-4.2,4-5.9,3.6-3.1,5.9-4.1,4.6-1.5,7.2-1.5,5.5.5,7.8,1.6c2.2,1.1,4.2,2.6,5.9,4.5,0,0-.2.2-.7.6-.5.4-1,.8-1.6,1.2-.7.5-1.5,1.1-2.4,1.7-1-1.1-2.3-1.9-3.9-2.5-1.6-.6-3.2-.9-5-.9h0ZM192.7,174.9h13.6v19.9c0,.4,0,.6,0,.7,0,0,0,0,0,0l-6-4.7v-9.7h-7.6v-6.2Z"/>
    <path id="element-id-95983" class="cls-1" d="M214.7,158.5h6.1v32.1l-6.1,4.8v-36.9Z"/>
    <path id="element-id-43726" class="cls-1" d="M246.2,158.5l18.5,37h-7.5l-11-23.2-11,23.2h-7.5l18.5-37Z"/>
    <path id="element-id-17127" class="cls-1" d="M81.6,204.8h7.5l11,23.2,11-23.2h7.5l-18.5,37-18.5-37Z"/>
    <path id="element-id-21382" class="cls-1" d="M124.9,204.8h6.1v32.1l-6.1,4.8v-36.9Z"/>
    <path id="element-id-17210" class="cls-1" d="M137.3,204.8h7.5l11,23.2,11-23.2h7.5l-18.5,37-18.5-37Z"/>
    <path id="element-id-37860" class="cls-1" d="M187.9,204.8l18.5,37h-7.5l-11-23.2-11,23.2h-7.5l18.5-37Z"/>
  </g>
  <g id="element-id-52272">
    <path id="element-id-20359" class="cls-1" d="M138.4,4.4h11v119.3h49.7v9.8c.1,0-60.7,0-60.7,0V4.4ZM137.2,94L95.8,19.2h-12.9l53.1,95.7h1.2v-20.9ZM192.3,19.2l-41.6,75.2v20.5h1.3l53.1-95.7h-12.8Z"/>
  </g>
</svg>