<svg xmlns:mydata="http://www.w3.org/2000/svg" mydata:contrastcolor="138275" mydata:template="Default" mydata:presentation="2.5" mydata:layouttype="undefined" mydata:specialfontid="undefined" mydata:id1="331" mydata:id2="650" mydata:companyname="Liturgia Viva" mydata:companytagline="" version="1.1" xmlns="http://www.w3.org/2000/svg" xmlns:xlink="http://www.w3.org/1999/xlink" style="height: 464px;" viewBox="0 0 550 470">
  <g fill="#ffffff" fill-rule="nonzero" stroke="none" stroke-width="1" stroke-linecap="butt" stroke-linejoin="miter" stroke-miterlimit="10" stroke-dasharray="" stroke-dashoffset="0" font-family="none" font-weight="none" font-size="none" text-anchor="none" style="mix-blend-mode: normal">
    <g data-paper-data="{&quot;isGlobalGroup&quot;:true,&quot;bounds&quot;:{&quot;x&quot;:154.24787957167499,&quot;y&quot;:116.29802439059685,&quot;width&quot;:241.50424085665006,&quot;height&quot;:237.40395121880633}}">
      <g data-paper-data="{&quot;stacked&quot;:true,&quot;isPrimaryText&quot;:true}" id="element-id-95376">
        <path d="M178.95948,301.36647v6.15329h-24.7116v0v-37.01818h6.15329v30.86489z" data-paper-data="{&quot;glyphName&quot;:&quot;L&quot;,&quot;glyphIndex&quot;:0,&quot;firstGlyphOfWord&quot;:true,&quot;word&quot;:1,&quot;line&quot;:1,&quot;firstGlyphOfFirstLine&quot;:true}" id="element-id-17790"></path>
        <path d="M186.04807,270.45235h6.10406v32.14478l-6.10406,4.77495z" data-paper-data="{&quot;glyphName&quot;:&quot;I&quot;,&quot;glyphIndex&quot;:1,&quot;word&quot;:1,&quot;line&quot;:1}" id="element-id-73091"></path>
        <path d="M223.1647,270.40312v6.15329h-12.30658v30.81567h-6.20251v-36.96895v0z" data-paper-data="{&quot;glyphName&quot;:&quot;T&quot;,&quot;glyphIndex&quot;:2,&quot;word&quot;:1,&quot;line&quot;:1}" id="element-id-44193"></path>
        <path d="M260.0352,270.45235v23.23481c0,0.32818 -0.02461,0.89428 -0.07384,1.69831c-0.04923,0.80403 -0.20511,1.71472 -0.46765,2.73206c-0.26254,1.01734 -0.68096,2.07571 -1.25527,3.1751c-0.57431,1.09939 -1.39475,2.10032 -2.46132,3.0028c-1.06657,0.90248 -2.41209,1.64088 -4.03656,2.21518c-1.62447,0.57431 -3.63454,0.86146 -6.03022,0.86146c-2.26441,0 -4.18424,-0.28715 -5.75948,-0.86146c-1.57524,-0.57431 -2.87153,-1.3127 -3.88888,-2.21518c-1.01734,-0.90248 -1.79676,-1.90342 -2.33825,-3.0028c-0.54149,-1.09939 -0.9353,-2.15775 -1.18143,-3.1751c-0.24613,-1.01734 -0.39381,-1.92803 -0.44304,-2.73206c-0.04923,-0.80403 -0.07384,-1.37013 -0.07384,-1.69831v-23.23481h6.15329v23.23481c0,0.36099 0.04102,0.98453 0.12307,1.8706c0.08204,0.88607 0.35279,1.79676 0.81223,2.73206c0.45945,0.9353 1.20604,1.76394 2.2398,2.48593c1.03375,0.72199 2.48593,1.08298 4.35653,1.08298c2.03469,0 3.60172,-0.36099 4.70111,-1.08298c1.09939,-0.72199 1.90342,-1.55063 2.41209,-2.48593c0.50867,-0.9353 0.80403,-1.84599 0.88607,-2.73206c0.08204,-0.88607 0.12307,-1.50961 0.12307,-1.8706v-23.23481z" data-paper-data="{&quot;glyphName&quot;:&quot;U&quot;,&quot;glyphIndex&quot;:3,&quot;word&quot;:1,&quot;line&quot;:1}" id="element-id-4548"></path>
        <path d="M298.7763,307.37207h-6.84246l-8.17157,-15.06325h-13.68491v-6.10406h17.7707c0.7548,-0.03282 1.42756,-0.22972 2.01828,-0.59072c0.52508,-0.29536 1.00093,-0.77121 1.42756,-1.42756c0.42663,-0.65635 0.63994,-1.59165 0.63994,-2.8059c0,-1.18143 -0.21331,-2.10032 -0.63994,-2.75667c-0.42663,-0.65635 -0.90248,-1.1322 -1.42756,-1.42756c-0.59072,-0.36099 -1.26348,-0.5579 -2.01828,-0.59072h-17.7707v-6.15329h17.7707c1.90342,0.09845 3.60993,0.5579 5.11954,1.37834c0.62353,0.36099 1.24707,0.80403 1.8706,1.32911c0.62353,0.52508 1.17323,1.16502 1.64908,1.91983c0.47585,0.7548 0.86146,1.64908 1.15682,2.68283c0.29536,1.03375 0.44304,2.2398 0.44304,3.61813c0,2.23159 -0.36099,4.06117 -1.08298,5.48873c-0.72199,1.42756 -1.53422,2.54336 -2.4367,3.34739c-0.90248,0.80403 -1.75574,1.35372 -2.55977,1.64908c-0.80403,0.29536 -1.28809,0.44304 -1.45218,0.44304z" data-paper-data="{&quot;glyphName&quot;:&quot;R&quot;,&quot;glyphIndex&quot;:4,&quot;word&quot;:1,&quot;line&quot;:1}" id="element-id-21413"></path>
        <path d="M323.68481,276.60564c-1.50961,0 -2.9946,0.32818 -4.45498,0.98453c-1.46038,0.65635 -2.77308,1.53422 -3.9381,2.63361c-1.16502,1.09939 -2.10853,2.39568 -2.83051,3.88888c-0.72199,1.4932 -1.08298,3.07664 -1.08298,4.75034c0,1.41115 0.27895,2.8059 0.83685,4.18424h-6.49787c-0.16409,-0.65635 -0.28715,-1.32911 -0.3692,-2.01828c-0.08204,-0.68917 -0.12307,-1.41115 -0.12307,-2.16596c0,-2.39568 0.48406,-4.70111 1.45218,-6.9163c0.96812,-2.21518 2.28902,-4.17603 3.96272,-5.88254c1.67369,-1.70651 3.63454,-3.06844 5.88254,-4.08578c2.248,-1.01734 4.63548,-1.52602 7.16243,-1.52602c2.92076,0 5.50514,0.54969 7.75314,1.64908c2.248,1.09939 4.20885,2.60079 5.88254,4.50421c0,0.03282 -0.24613,0.22972 -0.73839,0.59072c-0.49226,0.36099 -1.03375,0.7548 -1.62447,1.18143c-0.68917,0.49226 -1.4932,1.05016 -2.41209,1.67369c-1.01734,-1.05016 -2.31364,-1.88701 -3.88888,-2.51054c-1.57524,-0.62353 -3.23253,-0.9353 -4.97186,-0.9353zM323.68481,286.84471h13.63569c0,3.41302 0,6.30097 0,8.66383c0,2.36286 0,4.3073 0,5.83332c0,1.52602 0,2.70745 0,3.54429c0,0.83685 0,1.44397 0,1.82137c0,0.3774 -0.0082,0.59892 -0.02461,0.66456c-0.01641,0.06564 -0.02461,0.09845 -0.02461,0.09845l-6.00561,-4.72573v-9.69758h-7.58085z" data-paper-data="{&quot;glyphName&quot;:&quot;G&quot;,&quot;glyphIndex&quot;:5,&quot;word&quot;:1,&quot;line&quot;:1}" id="element-id-44637"></path>
        <path d="M345.7382,270.45235h6.10406v32.14478l-6.10406,4.77495z" data-paper-data="{&quot;glyphName&quot;:&quot;I&quot;,&quot;glyphIndex&quot;:6,&quot;word&quot;:1,&quot;line&quot;:1}" id="element-id-95983"></path>
        <path d="M377.24303,270.40312l18.50909,36.96895h-7.4824l-11.02669,-23.23481l-10.97747,23.23481h-7.4824z" data-paper-data="{&quot;glyphName&quot;:&quot;A&quot;,&quot;glyphIndex&quot;:7,&quot;lastGlyphOfWord&quot;:true,&quot;word&quot;:1,&quot;line&quot;:1,&quot;lastGlyphOfFirstLine&quot;:true}" id="element-id-43726"></path>
        <path d="M212.55644,316.73302h7.4824l11.02669,23.23481l10.97747,-23.23481h7.4824l-18.45986,36.96895z" data-paper-data="{&quot;glyphName&quot;:&quot;V&quot;,&quot;glyphIndex&quot;:8,&quot;firstGlyphOfWord&quot;:true,&quot;word&quot;:2,&quot;line&quot;:2,&quot;firstGlyphOfSecondLine&quot;:true}" id="element-id-17127"></path>
        <path d="M255.87558,316.78225h6.10406v32.14478l-6.10406,4.77495z" data-paper-data="{&quot;glyphName&quot;:&quot;I&quot;,&quot;glyphIndex&quot;:9,&quot;word&quot;:2,&quot;line&quot;:2}" id="element-id-21382"></path>
        <path d="M268.32984,316.73302h7.4824l11.02669,23.23481l10.97747,-23.23481h7.4824l-18.45986,36.96895z" data-paper-data="{&quot;glyphName&quot;:&quot;V&quot;,&quot;glyphIndex&quot;:10,&quot;word&quot;:2,&quot;line&quot;:2}" id="element-id-17210"></path>
        <path d="M318.93448,316.73302l18.50909,36.96895h-7.4824l-11.02669,-23.23481l-10.97747,23.23481h-7.4824z" data-paper-data="{&quot;glyphName&quot;:&quot;A&quot;,&quot;glyphIndex&quot;:11,&quot;lastGlyphOfWord&quot;:true,&quot;word&quot;:2,&quot;line&quot;:2,&quot;lastGlyphOfSecondLine&quot;:true}" id="element-id-37860"></path>
      </g>
      <g data-paper-data="{&quot;fillRule&quot;:&quot;nonzero&quot;,&quot;fillRuleOriginal&quot;:&quot;nonzero&quot;,&quot;isIcon&quot;:true,&quot;iconStyle&quot;:&quot;standalone&quot;,&quot;selectedEffects&quot;:{&quot;container&quot;:&quot;&quot;,&quot;transformation&quot;:&quot;rotate0;translate50&quot;,&quot;pattern&quot;:&quot;&quot;},&quot;bounds&quot;:{&quot;x&quot;:213.9058385425297,&quot;y&quot;:116.29802439059685,&quot;width&quot;:122.18832291494061,&quot;height&quot;:129.16313204539188},&quot;iconType&quot;:&quot;icon&quot;,&quot;rawIconId&quot;:&quot;67153f78-acbc-4e7f-9384-795284b8e2d3&quot;,&quot;isDetailed&quot;:false,&quot;suitableAsStandaloneIcon&quot;:true}" id="element-id-52272">
        <path d="M269.44599,116.29802h10.97887v119.34673h49.72781l0.12916,9.8164h-60.83584zM268.15435,205.93724l-41.3322,-74.78545h-12.91631l53.08605,95.70988h1.16247zM323.30701,131.15178l-41.59053,75.17294v20.53694h1.29163l53.08605,-95.70988z" data-paper-data="{&quot;isPathIcon&quot;:true}" id="element-id-20359"></path>
      </g>
    </g>
  </g>
</svg>